<svg width="57" height="57" viewBox="0 0 57 57" fill="none" xmlns="http://www.w3.org/2000/svg">
<g clip-path="url(#clip0_202_2)">
<path d="M28.5 17.8125C22.6107 17.8125 17.8125 22.6107 17.8125 28.5C17.8125 34.3893 22.6107 39.1875 28.5 39.1875C34.3893 39.1875 39.1875 34.3893 39.1875 28.5C39.1875 22.6107 34.3893 17.8125 28.5 17.8125ZM55.9313 26.7744L45.3885 21.5086L49.118 10.3313C49.6189 8.81719 48.1828 7.38105 46.6799 7.89316L35.5025 11.6227L30.2256 1.06875C29.5131 -0.35625 27.4869 -0.35625 26.7744 1.06875L21.5086 11.6115L10.3201 7.88203C8.80606 7.38105 7.36992 8.81719 7.88203 10.3201L11.6115 21.4975L1.06875 26.7744C-0.35625 27.4869 -0.35625 29.5131 1.06875 30.2256L11.6115 35.4914L7.88203 46.6799C7.38106 48.1939 8.81719 49.6301 10.3201 49.118L21.4975 45.3885L26.7633 55.9312C27.4758 57.3563 29.502 57.3563 30.2145 55.9312L35.4803 45.3885L46.6576 49.118C48.1717 49.6189 49.6078 48.1828 49.0957 46.6799L45.3662 35.5025L55.909 30.2367C57.3563 29.5131 57.3563 27.4869 55.9313 26.7744ZM38.5752 38.5752C33.0199 44.1305 23.9801 44.1305 18.4248 38.5752C12.8695 33.0199 12.8695 23.9801 18.4248 18.4248C23.9801 12.8695 33.0199 12.8695 38.5752 18.4248C44.1305 23.9801 44.1305 33.0199 38.5752 38.5752Z" fill="white"/>
</g>
<defs>
<clipPath id="clip0_202_2">
<rect width="57" height="57" fill="white"/>
</clipPath>
</defs>
</svg>
